<?xml version="1.0" encoding="utf-8"?>
<!-- Generator: Adobe Illustrator 23.0.1, SVG Export Plug-In . SVG Version: 6.00 Build 0)  -->
<svg version="1.1" xmlns="http://www.w3.org/2000/svg" xmlns:xlink="http://www.w3.org/1999/xlink" x="0px" y="0px"
	 viewBox="0 0 60 60" style="enable-background:new 0 0 60 60;" xml:space="preserve">
<style type="text/css">
	.st0{display:none;}
	.st1{display:inline;}
	.st2{fill:#FFFFFF;}
</style>
<g id="Background" class="st0">
	<g class="st1">
		<rect width="60" height="60"/>
	</g>
</g>
<g id="Layer_2">
	<path class="st2" d="M5,9h50c0.55,0,1-0.45,1-1v0c0-0.55-0.45-1-1-1H5C4.45,7,4,7.45,4,8v0C4,8.55,4.45,9,5,9z"/>
	<path class="st2" d="M6,22h48c1.1,0,2-0.9,2-2v0c0-1.1-0.9-2-2-2H6c-1.1,0-2,0.9-2,2v0C4,21.1,4.9,22,6,22z"/>
	<path class="st2" d="M6.28,37h47.44c1.26,0,2.28-1.02,2.28-2.28v-1.44c0-1.26-1.02-2.28-2.28-2.28H6.28C5.02,31,4,32.02,4,33.28
		v1.44C4,35.98,5.02,37,6.28,37z"/>
	<path class="st2" d="M6.96,53h46.08c1.63,0,2.96-1.33,2.96-2.96v-2.08c0-1.63-1.33-2.96-2.96-2.96H6.96C5.33,45,4,46.33,4,47.96
		v2.08C4,51.67,5.33,53,6.96,53z"/>
</g>
</svg>
