<?xml version="1.0" encoding="utf-8"?>
<!-- Generator: Adobe Illustrator 23.0.1, SVG Export Plug-In . SVG Version: 6.00 Build 0)  -->
<svg version="1.1" xmlns="http://www.w3.org/2000/svg" xmlns:xlink="http://www.w3.org/1999/xlink" x="0px" y="0px"
	 viewBox="0 0 25 25" style="enable-background:new 0 0 25 25;" xml:space="preserve">
<style type="text/css">
	.st0{display:none;}
	.st1{display:inline;}
	.st2{fill:none;stroke:#FFF2F1;stroke-width:2;stroke-miterlimit:10;}
	.st3{fill:none;stroke:#FFF2F1;stroke-width:1.1371;stroke-miterlimit:10;}
	.st4{fill:#FFF2F1;}
	.st5{fill:none;stroke:#FFF2F1;stroke-miterlimit:10;}
	.st6{fill:#1AD2E2;}
	.st7{fill:#FBB03B;}
</style>
<g id="Background" class="st0">
	<rect y="0" class="st1" width="25" height="25"/>
</g>
<g id="Icon">
	<path class="st4" d="M21.49,4.55c-1.41-2-4.15-3.94-5.4-4.12c-0.11-0.01-0.22-0.02-0.33-0.02L13,2L6.79,6.39h0L6.67,6.46
		C6.65,6.48,6.64,6.49,6.61,6.51C6.54,6.57,6.44,6.65,6.29,6.77C6.19,6.84,5.84,7.3,5.82,7.32C5.64,7.55,5.15,8.41,5.18,9.94
		c0.01,0.63,1.04,2.39,1.76,3.61c0.32,0.54,0.96,1.29,2.05,2.05c0.56,0.39,0.95,0.63,1.53,0.86c0.05,0.53-0.24,0.59-0.53,1.38
		c-0.3,0.82-0.14,1.83,0,2.56c0.02,0.13,0.02,0.24,0.01,0.34c-0.14,0-0.29,0-0.43,0C5.94,20.76,3,21.48,3,22.38
		C3,23.27,5.94,24,9.57,24s6.57-0.73,6.57-1.62c0-0.68-1.71-1.26-4.12-1.51c-0.68-1.49-0.57-2.43-0.32-3.02
		c0.17-0.4,0.47-0.77,0.67-1.05c0.18,0,0.31-0.04,0.48-0.14c0,0,0.38-0.18,0.65-0.4l0.38-0.29c-0.01,0,0.03-0.34,0.03-0.34
		c-0.05-0.33-0.11-0.66-0.17-1.02c-0.06-0.41-0.04-0.46-0.17-0.51c-0.15-0.06-0.32,0.51-0.85,0.85c-0.41,0.27-0.58,0.48-0.82,0.59
		c-0.63,0.29-0.93,0.12-1.02,0.08c-1.07-0.42-1.53-0.81-1.8-1.05c-0.81-0.73-1.22-1.23-1.73-2.25C6.94,11.5,5.91,9.41,5.95,8.85
		c0.04-0.58,0.08-1.02,0.4-1.4C6.7,7.02,7.07,6.89,7.26,6.74c1.4,0.58,3.87,2.39,5.04,4.05c1.17,1.68,1.81,3.47,1.86,4.97l5.21-3.58
		c0,0,0,0,0.01,0L23.1,9.8c0.02-0.05,0.02-0.11,0.03-0.16C23.32,8.33,22.84,6.46,21.49,4.55z M7.47,6.11
		C7.47,6.11,7.46,6.11,7.47,6.11L7.5,6.09C7.49,6.09,7.48,6.1,7.47,6.11z M7.53,6.07C7.63,6,7.63,6,7.63,6h0.02L7.53,6.07z
		 M15.08,14.27l0.01-0.01l0.02,0.01H15.08z M18.8,11.08c-0.04-1.21-0.56-2.67-1.51-4.03c-1.1-1.56-3.52-3.22-4.8-3.58l0.71-0.45
		l2.5-1.58c0.08-0.01,0.17,0,0.26,0.01c1.02,0.15,3.42,1.84,4.57,3.45c1.09,1.55,1.48,3.07,1.33,4.13
		c-0.01,0.04-0.01,0.09-0.02,0.13L19,11l-0.13,0.1l-0.04,0"/>
	<ellipse class="st4" cx="12" cy="22" rx="10" ry="2"/>
</g>
</svg>
